<?xml version="1.0" encoding="UTF-8" standalone="no"?>
<!-- Uploaded to: SVG Repo, www.svgrepo.com, Generator: SVG Repo Mixer Tools -->

<svg
   fill="#000000"
   width="800px"
   height="800px"
   viewBox="0 0 52 52"
   enable-background="new 0 0 52 52"
   xml:space="preserve"
   version="1.1"
   id="svg2"
   sodipodi:docname="favoritesIcon.svg"
   inkscape:version="1.4.3 (0d15f75, 2025-12-25)"
   xmlns:inkscape="http://www.inkscape.org/namespaces/inkscape"
   xmlns:sodipodi="http://sodipodi.sourceforge.net/DTD/sodipodi-0.dtd"
   xmlns="http://www.w3.org/2000/svg"
   xmlns:svg="http://www.w3.org/2000/svg"><defs
   id="defs2" /><sodipodi:namedview
   id="namedview2"
   pagecolor="#ffffff"
   bordercolor="#000000"
   borderopacity="0.25"
   inkscape:showpageshadow="2"
   inkscape:pageopacity="0.0"
   inkscape:pagecheckerboard="0"
   inkscape:deskcolor="#d1d1d1"
   inkscape:zoom="0.721875"
   inkscape:cx="-119.1342"
   inkscape:cy="171.08225"
   inkscape:window-width="2560"
   inkscape:window-height="1373"
   inkscape:window-x="-9"
   inkscape:window-y="-9"
   inkscape:window-maximized="1"
   inkscape:current-layer="svg2" />

<path
   style="fill:#000000;stroke-width:1.1659"
   d="m 11.402276,47.114701 c -0.21703,-0.106948 -0.537903,-0.382336 -0.713051,-0.611973 l -0.318453,-0.41752 V 27.180104 8.2750007 L 10.697577,7.655053 C 11.112621,6.8677153 11.69685,6.2834848 12.484188,5.868441 l 0.619948,-0.3268041 h 12.418977 12.418978 l 0.619948,0.3268041 c 0.824168,0.4344595 1.422886,1.0529195 1.802073,1.8614928 l 0.311343,0.663909 0.03116,18.6965762 c 0.03466,20.796994 0.09698,19.174642 -0.761697,19.82959 -0.445984,0.340169 -1.242776,0.479396 -1.709774,0.298756 -0.165635,-0.06407 -3.053493,-2.084078 -6.417462,-4.488909 -3.36397,-2.40483 -6.196527,-4.372419 -6.294572,-4.372419 -0.09804,0 -2.930601,1.967589 -6.294571,4.372419 -3.36397,2.404831 -6.241938,4.420184 -6.395487,4.478563 -0.42189,0.160403 -0.990698,0.123144 -1.430779,-0.09371 z m 33.194962,-8.63533 -0.03082,-18.400048 z"
   id="path2"
   sodipodi:nodetypes="sscccsscccsscsssssssssccc" /></svg>
